HIERARCHY
ROOT Hips
{
 OFFSET 0.000000 0.000000 0.000000
 CHANNELS 6 Xposition Yposition Zposition Yrotation Xrotation Zrotation
 JOINT Chest
 {
  OFFSET 0.000000 14.634200 -0.016200
  CHANNELS 3 Yrotation Xrotation Zrotation
  JOINT Chest2
  {
   OFFSET 0.000000 8.932900 0.033000
   CHANNELS 3 Yrotation Xrotation Zrotation
   JOINT Chest3
   {
    OFFSET 0.000000 8.892300 0.000000
    CHANNELS 3 Yrotation Xrotation Zrotation
    JOINT Chest4
    {
     OFFSET 0.000000 8.883200 0.000000
     CHANNELS 3 Yrotation Xrotation Zrotation
     JOINT Neck
     {
      OFFSET 0.000000 13.173600 0.000000
      CHANNELS 3 Yrotation Xrotation Zrotation
      JOINT Head
      {
       OFFSET 0.000000 8.324600 0.069800
       CHANNELS 3 Yrotation Xrotation Zrotation
       End Site
       {
        OFFSET 0.000000 15.692400 0.036900
       }
      }
     }
     JOINT RightCollar
     {
      OFFSET -2.619200 8.772200 0.000000
      CHANNELS 3 Yrotation Xrotation Zrotation
      JOINT RightShoulder
      {
       OFFSET -12.922000 0.000000 0.000000
       CHANNELS 3 Yrotation Xrotation Zrotation
       JOINT RightElbow
       {
        OFFSET 0.000000 -27.880900 0.000000
        CHANNELS 3 Yrotation Xrotation Zrotation
        JOINT RightWrist
        {
         OFFSET 0.000000 -22.758700 0.008200
         CHANNELS 3 Yrotation Xrotation Zrotation
         End Site
         {
          OFFSET 0.000000 -16.965000 0.000000
         }
        }
       }
      }
     }
     JOINT LeftCollar
     {
      OFFSET 2.619200 8.772200 0.000000
      CHANNELS 3 Yrotation Xrotation Zrotation
      JOINT LeftShoulder
      {
       OFFSET 12.922000 0.000000 0.000000
       CHANNELS 3 Yrotation Xrotation Zrotation
       JOINT LeftElbow
       {
        OFFSET 0.000000 -27.880900 0.000000
        CHANNELS 3 Yrotation Xrotation Zrotation
        JOINT LeftWrist
        {
         OFFSET 0.000000 -22.758700 0.008200
         CHANNELS 3 Yrotation Xrotation Zrotation
         End Site
         {
          OFFSET 0.000000 -16.965000 0.000000
         }
        }
       }
      }
     }
    }
   }
  }
 }
 JOINT RightHip
 {
  OFFSET -12.026800 0.080100 0.008100
  CHANNELS 3 Yrotation Xrotation Zrotation
  JOINT RightKnee
  {
   OFFSET 0.000000 -42.600800 -0.000200
   CHANNELS 3 Yrotation Xrotation Zrotation
   JOINT RightAnkle
   {
    OFFSET 0.000000 -38.219300 0.054300
    CHANNELS 3 Yrotation Xrotation Zrotation
    JOINT RightToe
    {
     OFFSET 0.000000 -9.685800 15.804700
     CHANNELS 3 Yrotation Xrotation Zrotation
     JOINT Prop1
     {
      OFFSET 12.026800 0.000000 -15.866900
      CHANNELS 3 Yrotation Xrotation Zrotation
      End Site
      {
       OFFSET 0.000000 -168.959000 -0.123500
      }
     }
     End Site
     {
      OFFSET 0.000000 -1.422300 5.761700
     }
    }
   }
  }
 }
 JOINT LeftHip
 {
  OFFSET 12.026800 0.080100 0.008100
  CHANNELS 3 Yrotation Xrotation Zrotation
  JOINT LeftKnee
  {
   OFFSET 0.000000 -42.600800 -0.000200
   CHANNELS 3 Yrotation Xrotation Zrotation
   JOINT LeftAnkle
   {
    OFFSET 0.000000 -38.219300 0.054300
    CHANNELS 3 Yrotation Xrotation Zrotation
    JOINT LeftToe
    {
     OFFSET 0.000000 -9.685800 15.804700
     CHANNELS 3 Yrotation Xrotation Zrotation
     End Site
     {
      OFFSET 0.000000 -1.422300 5.761700
     }
    }
   }
  }
 }
}
MOTION
Frames: 10
Frame Time: 0.008333
-10.430284 129.934671 21.001100 170.704129 -28.406050 -1.125485 0.849717 20.901787 0.424151 0.114180 2.718396 0.042839 0.166737 4.438729 0.068248 0.721437 17.878610 0.369668 -6.037955 33.949456 0.628983 -6.997173 13.545863 2.041076 2.513014 0.136275 -2.170225 35.629158 -42.311853 -14.381904 -131.631951 -42.267792 169.815540 -3.079604 -9.999295 -72.160137 -15.164233 5.941740 0.330980 0.023444 -34.044392 9.038855 -0.979319 -55.130615 -9.331182 -11.253459 8.331124 7.806177 -1.651525 -44.484734 12.531885 -40.672357 80.672367 -45.239288 -1.473531 -10.049538 4.557044 -0.015241 -0.005655 -0.009340 180.000000 -0.000000 180.000000 18.537025 -40.779520 -17.055757 70.202235 75.654690 79.863367 2.678554 -8.612939 -5.993688 -0.005662 0.005426 -0.003470
-10.430466 129.933953 20.999300 170.722916 -28.396310 -1.128119 0.851416 20.896337 0.428125 0.104743 2.715890 0.039585 0.171242 4.438913 0.066022 0.706567 17.873281 0.370263 -6.043542 33.942921 0.629837 -7.022068 13.522642 2.070212 2.506506 0.162710 -2.170897 35.663143 -42.313688 -14.412556 -131.683262 -42.272245 169.844779 -3.103621 -10.008568 -72.169935 -15.160317 5.981573 0.307118 0.036894 -34.064303 9.057948 -0.928721 -55.164519 -9.380363 -11.253121 8.343629 7.817232 -1.643209 -44.498220 12.536865 -40.772196 80.673444 -45.341942 -1.488605 -10.053310 4.561532 -0.013536 -0.007305 -0.008295 180.000000 -0.000000 180.000000 18.540231 -40.790178 -17.060176 70.203076 75.669047 79.865774 2.676960 -8.606555 -5.997106 -0.004256 0.003263 -0.002608
-10.430219 129.933382 20.997824 170.741677 -28.388620 -1.132673 0.841196 20.891174 0.426040 0.100934 2.714369 0.039485 0.176355 4.440127 0.064324 0.711264 17.867540 0.362957 -6.048775 33.946076 0.643928 -7.035743 13.522641 2.083964 2.488891 0.186589 -2.158466 35.654372 -42.315591 -14.412655 -131.690511 -42.265373 169.873096 -3.117484 -10.014955 -72.210371 -15.170871 6.000046 0.309628 0.057490 -34.060027 9.061039 -0.918463 -55.187944 -9.403658 -11.230087 8.342011 7.850899 -1.638070 -44.509505 12.542164 -40.890736 80.665035 -45.455726 -1.476469 -10.044580 4.536182 -0.007275 -0.005808 -0.004458 180.000000 -0.000000 180.000000 18.550174 -40.802613 -17.054866 70.214872 75.687204 79.868416 2.672054 -8.586139 -6.010633 -0.007443 0.006412 -0.004562
-10.430016 129.932489 20.997559 170.763280 -28.378779 -1.139596 0.843998 20.889590 0.427496 0.100709 2.714160 0.038944 0.165626 4.435935 0.066312 0.736577 17.882813 0.348059 -6.062526 33.931014 0.678340 -7.047254 13.532246 2.093688 2.447491 0.190930 -2.128244 35.644529 -42.333143 -14.410643 -131.655675 -42.257669 169.870289 -3.118369 -10.020087 -72.259677 -15.202716 6.010799 0.323579 0.067785 -34.069973 9.078152 -0.833259 -55.219165 -9.460689 -11.240965 8.354105 7.845961 -1.634732 -44.523270 12.546754 -40.938534 80.678284 -45.505659 -1.502125 -10.050258 4.547120 -0.007693 -0.007515 -0.004715 180.000000 -0.000000 180.000000 18.565017 -40.819539 -17.037758 70.221082 75.717390 79.867605 2.644977 -8.578198 -6.004476 0.001459 0.001959 0.000894
-10.431709 129.932115 20.996638 170.785553 -28.373758 -1.139715 0.840691 20.894171 0.422052 0.118995 2.723665 0.039538 0.165579 4.437675 0.064725 0.710957 17.868338 0.351573 -6.066116 33.935925 0.680275 -7.056030 13.545664 2.103042 2.442271 0.218445 -2.121929 35.617836 -42.355432 -14.403960 -131.625958 -42.250659 169.878313 -3.134514 -10.032798 -72.310662 -15.209932 6.021570 0.313324 0.081902 -34.068278 9.094273 -0.669911 -55.264449 -9.562089 -11.251394 8.369651 7.856028 -1.613698 -44.537503 12.549759 -41.127000 80.678437 -45.696003 -1.523218 -10.049587 4.550619 0.000644 -0.007886 0.000395 180.000000 -0.000000 180.000000 18.573335 -40.828376 -17.033289 70.260195 75.724762 79.878077 2.622494 -8.574480 -5.982336 -0.004823 0.001810 -0.002956
-10.432976 129.932018 20.996050 170.802158 -28.371158 -1.139588 0.855402 20.905474 0.427819 0.096898 2.713960 0.037316 0.172474 4.438582 0.065226 0.704190 17.869432 0.349005 -6.068925 33.946214 0.681356 -7.060463 13.566489 2.106491 2.435428 0.216526 -2.116045 35.598507 -42.354056 -14.388906 -131.596229 -42.244704 169.872665 -3.164722 -10.053790 -72.358606 -15.215483 6.029174 0.304422 0.112383 -34.056630 9.100965 -0.611884 -55.300979 -9.617715 -11.249823 8.372551 7.867224 -1.610024 -44.542481 12.550536 -41.211377 80.684244 -45.788923 -1.529550 -10.053762 4.552228 0.000295 -0.006790 0.000181 180.000000 -0.000000 180.000000 18.577753 -40.833724 -17.030997 70.282477 75.736372 79.890362 2.612479 -8.567482 -5.984734 -0.004812 0.001271 -0.002949
-10.433098 129.932184 20.995958 170.812736 -28.370668 -1.141695 0.848769 20.906668 0.426532 0.100101 2.715656 0.037694 0.181255 4.430427 0.065846 0.695992 17.882547 0.346661 -6.072154 33.958233 0.682260 -7.057247 13.594540 2.104267 2.433272 0.221254 -2.114752 35.549472 -42.345528 -14.336275 -131.463500 -42.203581 169.838529 -3.122691 -10.061914 -72.415887 -15.217364 6.030445 0.300515 0.152401 -34.039049 9.092379 -0.577010 -55.337535 -9.662749 -11.242301 8.370923 7.884876 -1.609841 -44.542631 12.559564 -41.248657 80.691653 -45.840810 -1.533613 -10.057730 4.551898 -0.002370 -0.003893 -0.001452 180.000000 -0.000000 180.000000 18.580578 -40.838208 -17.023896 70.297599 75.750139 79.902172 2.603679 -8.564735 -5.981893 -0.002399 -0.002693 -0.001470
-10.434075 129.932187 20.996544 170.835074 -28.369192 -1.146533 0.846666 20.903139 0.430847 0.114172 2.698831 0.038480 0.162220 4.432478 0.063878 0.693602 17.892587 0.347387 -6.074303 33.981375 0.681378 -7.050766 13.635434 2.101134 2.435052 0.251354 -2.120883 35.501164 -42.346252 -14.284651 -131.353347 -42.177160 169.827793 -3.099469 -10.085773 -72.483674 -15.217557 6.047787 0.308409 0.209035 -34.014644 9.055154 -0.566549 -55.383364 -9.696481 -11.250705 8.371536 7.886715 -1.620878 -44.542296 12.559742 -41.292145 80.687122 -45.886457 -1.532306 -10.057171 4.546888 -0.001008 -0.003853 -0.000618 180.000000 -0.000000 180.000000 18.573912 -40.843297 -17.022858 70.314229 75.763147 79.914282 2.600878 -8.557847 -5.989519 -0.001164 -0.001556 -0.000714
-10.436728 129.932519 20.996603 170.856659 -28.370767 -1.143788 0.841974 20.893985 0.424002 0.103274 2.690406 0.040358 0.160541 4.440436 0.062511 0.697086 17.841996 0.343889 -6.062175 34.055814 0.676384 -7.045759 13.686549 2.105943 2.438674 0.319037 -2.120450 35.471024 -42.340754 -14.250200 -131.317287 -42.168524 169.836504 -3.096671 -10.100115 -72.519536 -15.226172 6.108517 0.303644 0.281508 -33.971816 9.012033 -0.584601 -55.436297 -9.714945 -11.249167 8.370816 7.891559 -1.626360 -44.540063 12.545350 -41.321275 80.691719 -45.921488 -1.531300 -10.061654 4.548540 -0.003567 -0.003865 -0.002186 180.000000 -0.000000 180.000000 18.568710 -40.840520 -17.033518 70.317607 75.766407 79.905601 2.602163 -8.548656 -5.986916 -0.005170 0.000284 -0.003169
-10.439691 129.932405 20.997511 170.873982 -28.369183 -1.137562 0.826926 20.863768 0.417827 0.095491 2.701213 0.037932 0.164936 4.444131 0.058707 0.682102 17.825526 0.346385 -6.054994 34.086915 0.664371 -7.022297 13.748090 2.092322 2.453999 0.351088 -2.128217 35.490535 -42.322866 -14.243397 -131.309905 -42.166390 169.845773 -3.144908 -10.148150 -72.607915 -15.216692 6.133004 0.297500 0.348697 -33.920569 8.965685 -0.622323 -55.491681 -9.715236 -11.216097 8.364526 7.924801 -1.624102 -44.541102 12.532554 -41.337659 80.691152 -45.945180 -1.539655 -10.062651 4.555059 -0.002966 -0.003402 -0.001818 180.000000 -0.000000 180.000000 18.568330 -40.841216 -17.046615 70.294822 75.767624 79.865366 2.601108 -8.529667 -5.974412 -0.012126 0.000822 -0.007431
